<svg version="1.1" id="Layer_1" xmlns="http://www.w3.org/2000/svg" xmlns:xlink="http://www.w3.org/1999/xlink" x="0px" y="0px"
	 width="100%" viewBox="0 0 425 127" enable-background="new 0 0 425 127" xml:space="preserve">
<path fill="#6ECEF5" opacity="1.000000" stroke="none" 
	d="
M301.000000,128.000000 
	C200.666672,128.000000 100.833359,128.000000 1.000027,128.000000 
	C1.000018,85.666687 1.000018,43.333366 1.000009,1.000038 
	C142.666641,1.000026 284.333282,1.000026 425.999939,1.000013 
	C425.999939,43.333294 425.999939,85.666588 425.999969,127.999939 
	C384.500000,128.000000 343.000000,128.000000 301.000000,128.000000 
M357.842285,83.805344 
	C356.133209,87.458633 355.820282,90.988113 359.523956,93.584869 
	C363.505676,96.376579 366.776764,94.412033 369.689575,91.507301 
	C380.538147,80.688889 391.315094,69.798141 402.225983,59.043140 
	C405.536499,55.779922 405.793671,52.238415 403.387878,48.716492 
	C401.542786,46.015404 399.177979,43.527550 396.610077,41.492943 
	C391.954346,37.804096 388.544250,38.190281 384.366608,42.366535 
	C374.238068,52.491665 364.139648,62.646927 354.032715,72.793686 
	C352.505096,74.327293 350.589386,75.661797 349.607605,77.492882 
	C348.809296,78.981895 349.141205,81.076920 348.971893,82.903183 
	C350.911896,83.061356 352.856476,83.362106 354.789398,83.299873 
	C355.460175,83.278282 356.102051,82.357178 357.273621,82.219810 
	C357.552704,82.537949 357.831787,82.856079 357.842285,83.805344 
M317.422882,73.305717 
	C311.352539,69.557510 304.849030,69.518425 298.029053,71.125107 
	C299.459045,72.528442 301.059753,73.304916 302.749573,73.679253 
	C305.665497,74.325211 308.707367,74.486862 311.548737,75.342201 
	C312.623566,75.665779 313.856171,77.279228 313.996796,78.429436 
	C314.169830,79.844246 313.705109,81.808517 312.749542,82.785980 
	C311.063782,84.510406 308.865479,85.780708 306.761780,87.040886 
	C300.278046,90.924881 293.578156,92.427513 286.520233,88.467705 
	C279.768585,84.679703 279.808624,78.470535 280.415527,71.897881 
	C282.169312,52.904045 298.489746,46.127949 313.337036,48.365341 
	C315.124084,48.634640 316.953430,48.623127 320.032623,48.824982 
	C316.720764,43.093983 312.095978,42.616539 308.245209,43.315826 
	C282.841095,47.929138 279.365570,53.026386 275.921631,73.724747 
	C275.866943,74.053337 275.827057,74.384735 275.762085,74.711205 
	C274.734192,79.876007 276.515411,84.198166 279.789825,88.057976 
	C286.790894,96.310692 299.217560,96.210045 307.712128,91.304962 
	C309.931519,90.023392 312.008240,88.494698 314.997955,86.519615 
	C314.997955,91.312164 314.852234,95.097412 315.097595,98.857117 
	C315.161194,99.831421 316.449432,100.725784 317.175140,101.656868 
	C317.792877,100.655495 318.871613,99.684898 318.940918,98.646904 
	C319.139954,95.665482 319.006104,92.653236 318.865051,89.659599 
	C318.617706,84.409225 318.267578,79.163704 317.422882,73.305717 
M45.342861,62.379627 
	C39.933102,57.818737 38.700058,53.120235 41.722614,48.584717 
	C45.503513,42.911266 51.011185,41.512890 57.335850,44.484348 
	C58.827667,45.185238 60.507702,45.485504 62.101154,45.970066 
	C62.377899,45.558697 62.654644,45.147327 62.931393,44.735958 
	C61.984497,43.604294 61.211815,42.239262 60.061291,41.380375 
	C54.331028,37.102642 48.445099,39.026134 43.176655,41.987839 
	C38.610691,44.554642 34.914780,48.736427 35.209995,54.423805 
	C35.485897,59.738983 38.583080,63.574139 43.716427,65.698631 
	C48.301140,67.596062 52.982769,69.439774 57.195148,72.006989 
	C61.638691,74.715073 62.672585,80.127396 60.799149,86.402954 
	C59.467701,90.862991 55.564915,92.318268 51.824383,92.124725 
	C47.008801,91.875557 42.238770,90.347366 37.503479,89.154320 
	C35.767628,88.716980 34.250664,87.384964 32.513439,86.987961 
	C31.339958,86.719788 29.955921,87.372963 28.666063,87.614014 
	C29.318104,88.811005 29.663279,90.522110 30.670824,91.123497 
	C38.596363,95.854111 46.975155,98.726334 56.327328,95.981361 
	C63.039658,94.011215 66.277596,89.185379 67.087036,82.463562 
	C67.857712,76.063622 65.849709,71.882034 59.714066,68.678688 
	C55.311817,66.380325 50.598034,64.678688 45.342861,62.379627 
M221.959305,76.096733 
	C223.632538,84.430573 227.896912,90.850212 236.580200,92.532715 
	C245.695679,94.298950 254.195969,92.767937 260.308868,84.669495 
	C267.029999,75.765244 265.319794,66.375961 261.427979,57.217560 
	C258.897369,51.262451 254.785767,46.178448 247.533585,45.781441 
	C239.206589,45.325592 232.094864,47.985901 227.320450,55.270149 
	C223.358597,61.314716 221.847549,68.055412 221.959305,76.096733 
M92.931152,61.719868 
	C87.999435,56.423733 87.358246,52.561123 90.664803,48.066921 
	C94.677361,42.613148 99.611656,41.552628 105.974220,44.592747 
	C107.392540,45.270439 109.058151,45.430553 110.609909,45.828964 
	C110.612885,43.852577 110.215515,42.761330 109.453583,42.074478 
	C105.035454,38.091721 100.140656,38.516148 94.985146,40.518715 
	C88.436333,43.062481 83.892548,48.261875 83.924942,53.872684 
	C83.962975,60.461643 87.962868,64.031593 93.676651,66.314178 
	C97.525833,67.851883 101.452499,69.348145 105.004646,71.440033 
	C109.965622,74.361588 111.138466,79.053932 109.529922,85.445168 
	C108.216087,90.665459 104.203049,92.452072 99.765739,92.195511 
	C95.113777,91.926529 90.517647,90.334686 85.951767,89.116196 
	C84.214218,88.652496 82.688148,87.404961 80.952316,86.923050 
	C79.850441,86.617142 78.539650,87.063766 77.322548,87.172913 
	C77.797089,88.427856 77.899986,90.286697 78.804329,90.843231 
	C86.818748,95.775253 95.330429,98.821068 104.872307,95.968124 
	C111.789200,93.900032 114.779991,88.751648 115.741638,81.893616 
	C116.659279,75.349396 113.178207,71.350807 108.104858,68.601334 
	C103.455925,66.081879 98.411804,64.291618 92.931152,61.719868 
M142.191971,46.814194 
	C135.007645,62.258492 129.756302,78.217072 129.252762,95.538734 
	C130.740463,94.402893 132.048096,92.989311 132.099960,91.531067 
	C132.444641,81.839874 138.422150,78.923561 146.887939,78.658409 
	C149.707230,78.570107 152.528366,78.308586 155.330917,77.976471 
	C158.947601,77.547890 160.914093,79.204445 161.942505,82.555092 
	C163.210938,86.687798 164.511185,90.827789 166.153519,94.818192 
	C166.641541,96.004005 168.327362,96.696854 169.464355,97.615578 
	C169.585648,96.251320 170.115463,94.771294 169.766571,93.540291 
	C165.010834,76.760010 156.863190,61.561111 147.845810,46.760075 
	C146.137543,43.956154 144.612289,43.697128 142.191971,46.814194 
M187.051712,79.551834 
	C188.057312,69.292801 189.137405,59.039906 189.983032,48.767700 
	C190.101105,47.333347 189.066711,45.804115 188.565796,44.318810 
	C187.440704,45.567886 185.454254,46.734123 185.324921,48.078964 
	C184.147415,60.322250 183.268936,72.594841 182.360855,84.863144 
	C182.106094,88.305038 183.813858,90.108078 187.286957,90.362869 
	C194.247375,90.873512 201.198090,91.531998 208.164001,91.936432 
	C209.249420,91.999451 210.393951,91.044098 211.511154,90.559662 
	C210.511124,89.687126 209.589401,88.184647 208.497787,88.048965 
	C203.228928,87.394058 197.920395,86.975487 192.614044,86.731514 
	C188.410095,86.538223 186.523636,84.636154 187.051712,79.551834 
M352.306213,91.171753 
	C350.118866,89.281693 347.298950,85.702393 345.042725,89.283188 
	C343.118835,92.336609 343.075714,96.998413 343.386261,100.853165 
	C343.535675,102.707703 352.577332,101.624649 354.774200,99.187370 
	C357.772400,95.861153 354.828644,93.849770 352.306213,91.171753 
z"/>
<path fill="#F8FDFF" opacity="1.000000" stroke="none" 
	d="
M356.757111,81.846916 
	C356.102051,82.357178 355.460175,83.278282 354.789398,83.299873 
	C352.856476,83.362106 350.911896,83.061356 348.971893,82.903183 
	C349.141205,81.076920 348.809296,78.981895 349.607605,77.492882 
	C350.589386,75.661797 352.505096,74.327293 354.032715,72.793686 
	C364.139648,62.646927 374.238068,52.491665 384.366608,42.366535 
	C388.544250,38.190281 391.954346,37.804096 396.610077,41.492943 
	C399.177979,43.527550 401.542786,46.015404 403.387878,48.716492 
	C405.793671,52.238415 405.536499,55.779922 402.225983,59.043140 
	C391.315094,69.798141 380.538147,80.688889 369.689575,91.507301 
	C366.776764,94.412033 363.505676,96.376579 359.523956,93.584869 
	C355.820282,90.988113 356.133209,87.458633 358.267090,83.322342 
	C369.270844,72.332832 379.849823,61.826313 390.428772,51.319801 
	C389.863342,50.758492 389.297882,50.197186 388.732452,49.635880 
	C378.074005,60.372894 367.415558,71.109909 356.757111,81.846916 
z"/>
<path fill="#F4FBFE" opacity="1.000000" stroke="none" 
	d="
M317.691681,73.610931 
	C318.267578,79.163704 318.617706,84.409225 318.865051,89.659599 
	C319.006104,92.653236 319.139954,95.665482 318.940918,98.646904 
	C318.871613,99.684898 317.792877,100.655495 317.175140,101.656860 
	C316.449432,100.725784 315.161194,99.831421 315.097595,98.857117 
	C314.852234,95.097412 314.997955,91.312164 314.997955,86.519615 
	C312.008240,88.494698 309.931519,90.023392 307.712128,91.304962 
	C299.217560,96.210045 286.790894,96.310692 279.789825,88.057976 
	C276.515411,84.198166 274.734192,79.876007 275.762085,74.711205 
	C275.827057,74.384735 275.866943,74.053337 275.921631,73.724747 
	C279.365570,53.026386 282.841095,47.929138 308.245209,43.315826 
	C312.095978,42.616539 316.720764,43.093983 320.032623,48.824982 
	C316.953430,48.623127 315.124084,48.634640 313.337036,48.365341 
	C298.489746,46.127949 282.169312,52.904045 280.415527,71.897881 
	C279.808624,78.470535 279.768585,84.679703 286.520233,88.467705 
	C293.578156,92.427513 300.278046,90.924881 306.761780,87.040886 
	C308.865479,85.780708 311.063782,84.510406 312.749542,82.785980 
	C313.705109,81.808517 314.169830,79.844246 313.996796,78.429436 
	C313.856171,77.279228 312.623566,75.665779 311.548737,75.342201 
	C308.707367,74.486862 305.665497,74.325211 302.749573,73.679253 
	C301.059753,73.304916 299.459045,72.528442 298.029053,71.125107 
	C304.849030,69.518425 311.352539,69.557510 317.691681,73.610931 
z"/>
<path fill="#F4FBFE" opacity="1.000000" stroke="none" 
	d="
M45.683048,62.545227 
	C50.598034,64.678688 55.311817,66.380325 59.714066,68.678688 
	C65.849709,71.882034 67.857712,76.063622 67.087036,82.463562 
	C66.277596,89.185379 63.039658,94.011215 56.327328,95.981361 
	C46.975155,98.726334 38.596363,95.854111 30.670824,91.123497 
	C29.663279,90.522110 29.318104,88.811005 28.666063,87.614014 
	C29.955921,87.372963 31.339958,86.719788 32.513439,86.987961 
	C34.250664,87.384964 35.767628,88.716980 37.503479,89.154320 
	C42.238770,90.347366 47.008801,91.875557 51.824383,92.124725 
	C55.564915,92.318268 59.467701,90.862991 60.799149,86.402954 
	C62.672585,80.127396 61.638691,74.715073 57.195148,72.006989 
	C52.982769,69.439774 48.301140,67.596062 43.716427,65.698631 
	C38.583080,63.574139 35.485897,59.738983 35.209995,54.423805 
	C34.914780,48.736427 38.610691,44.554642 43.176655,41.987839 
	C48.445099,39.026134 54.331028,37.102642 60.061291,41.380375 
	C61.211815,42.239262 61.984497,43.604294 62.931393,44.735958 
	C62.654644,45.147327 62.377899,45.558697 62.101154,45.970066 
	C60.507702,45.485504 58.827667,45.185238 57.335850,44.484348 
	C51.011185,41.512890 45.503513,42.911266 41.722614,48.584717 
	C38.700058,53.120235 39.933102,57.818737 45.683048,62.545227 
z"/>
<path fill="#F4FBFE" opacity="1.000000" stroke="none" 
	d="
M221.954315,75.654739 
	C221.847549,68.055412 223.358597,61.314716 227.320450,55.270149 
	C232.094864,47.985901 239.206589,45.325592 247.533585,45.781441 
	C254.785767,46.178448 258.897369,51.262451 261.427979,57.217560 
	C265.319794,66.375961 267.029999,75.765244 260.308868,84.669495 
	C254.195969,92.767937 245.695679,94.298950 236.580200,92.532715 
	C227.896912,90.850212 223.632538,84.430573 221.954315,75.654739 
M245.715164,49.221935 
	C233.099960,50.959400 227.708481,58.612095 226.864853,73.400383 
	C226.382751,81.851891 231.324158,88.091286 238.422974,89.027031 
	C248.834900,90.399506 257.906128,85.772171 259.632141,77.514198 
	C261.194641,70.038391 260.663269,62.531006 256.309357,55.852840 
	C254.008987,52.324425 251.354248,49.061470 245.715164,49.221935 
z"/>
<path fill="#F4FBFE" opacity="1.000000" stroke="none" 
	d="
M93.236481,61.949963 
	C98.411804,64.291618 103.455925,66.081879 108.104858,68.601334 
	C113.178207,71.350807 116.659279,75.349396 115.741638,81.893616 
	C114.779991,88.751648 111.789200,93.900032 104.872307,95.968124 
	C95.330429,98.821068 86.818748,95.775253 78.804329,90.843231 
	C77.899986,90.286697 77.797089,88.427856 77.322548,87.172913 
	C78.539650,87.063766 79.850441,86.617142 80.952316,86.923050 
	C82.688148,87.404961 84.214218,88.652496 85.951767,89.116196 
	C90.517647,90.334686 95.113777,91.926529 99.765739,92.195511 
	C104.203049,92.452072 108.216087,90.665459 109.529922,85.445168 
	C111.138466,79.053932 109.965622,74.361588 105.004646,71.440033 
	C101.452499,69.348145 97.525833,67.851883 93.676651,66.314178 
	C87.962868,64.031593 83.962975,60.461643 83.924942,53.872684 
	C83.892548,48.261875 88.436333,43.062481 94.985146,40.518715 
	C100.140656,38.516148 105.035454,38.091721 109.453583,42.074478 
	C110.215515,42.761330 110.612885,43.852577 110.609909,45.828964 
	C109.058151,45.430553 107.392540,45.270439 105.974220,44.592747 
	C99.611656,41.552628 94.677361,42.613148 90.664803,48.066921 
	C87.358246,52.561123 87.999435,56.423733 93.236481,61.949963 
z"/>
<path fill="#F4FBFE" opacity="1.000000" stroke="none" 
	d="
M142.376251,46.503883 
	C144.612289,43.697128 146.137543,43.956154 147.845810,46.760075 
	C156.863190,61.561111 165.010834,76.760010 169.766571,93.540291 
	C170.115463,94.771294 169.585648,96.251320 169.464355,97.615578 
	C168.327362,96.696854 166.641541,96.004005 166.153519,94.818192 
	C164.511185,90.827789 163.210938,86.687798 161.942505,82.555092 
	C160.914093,79.204445 158.947601,77.547890 155.330917,77.976471 
	C152.528366,78.308586 149.707230,78.570107 146.887939,78.658409 
	C138.422150,78.923561 132.444641,81.839874 132.099960,91.531067 
	C132.048096,92.989311 130.740463,94.402893 129.252762,95.538734 
	C129.756302,78.217072 135.007645,62.258492 142.376251,46.503883 
M137.530243,76.528976 
	C144.010925,75.743492 150.491608,74.958000 158.331635,74.007759 
	C153.978516,65.397369 150.158112,57.840714 146.337723,50.284061 
	C145.734238,50.337448 145.130737,50.390839 144.527252,50.444229 
	C141.732620,58.224651 138.899734,65.991875 136.205063,73.806763 
	C135.947586,74.553497 136.552780,75.597694 137.530243,76.528976 
z"/>
<path fill="#F5FCFE" opacity="1.000000" stroke="none" 
	d="
M187.043716,79.993362 
	C186.523636,84.636154 188.410095,86.538223 192.614044,86.731514 
	C197.920395,86.975487 203.228928,87.394058 208.497787,88.048965 
	C209.589401,88.184647 210.511124,89.687126 211.511154,90.559662 
	C210.393951,91.044098 209.249420,91.999451 208.164001,91.936432 
	C201.198090,91.531998 194.247375,90.873512 187.286957,90.362869 
	C183.813858,90.108078 182.106094,88.305038 182.360855,84.863144 
	C183.268936,72.594841 184.147415,60.322250 185.324921,48.078964 
	C185.454254,46.734123 187.440704,45.567886 188.565796,44.318806 
	C189.066711,45.804115 190.101105,47.333347 189.983032,48.767700 
	C189.137405,59.039906 188.057312,69.292801 187.043716,79.993362 
z"/>
<path fill="#F8FDFF" opacity="1.000000" stroke="none" 
	d="
M352.570618,91.432259 
	C354.828644,93.849770 357.772400,95.861153 354.774200,99.187370 
	C352.577332,101.624649 343.535675,102.707703 343.386261,100.853165 
	C343.075714,96.998413 343.118835,92.336609 345.042725,89.283188 
	C347.298950,85.702393 350.118866,89.281693 352.570618,91.432259 
z"/>
<path fill="#76D1F6" opacity="1.000000" stroke="none" 
	d="
M357.015381,82.033363 
	C367.415558,71.109909 378.074005,60.372894 388.732452,49.635880 
	C389.297882,50.197186 389.863342,50.758492 390.428772,51.319801 
	C379.849823,61.826313 369.270844,72.332832 358.401367,83.006783 
	C357.831787,82.856079 357.552704,82.537949 357.015381,82.033363 
z"/>
<path fill="#6FCFF5" opacity="1.000000" stroke="none" 
	d="
M246.109253,49.182320 
	C251.354248,49.061470 254.008987,52.324425 256.309357,55.852840 
	C260.663269,62.531006 261.194641,70.038391 259.632141,77.514198 
	C257.906128,85.772171 248.834900,90.399506 238.422974,89.027031 
	C231.324158,88.091286 226.382751,81.851891 226.864853,73.400383 
	C227.708481,58.612095 233.099960,50.959400 246.109253,49.182320 
z"/>
<path fill="#72D0F5" opacity="1.000000" stroke="none" 
	d="
M137.143875,76.516388 
	C136.552780,75.597694 135.947586,74.553497 136.205063,73.806763 
	C138.899734,65.991875 141.732620,58.224651 144.527252,50.444229 
	C145.130737,50.390839 145.734238,50.337448 146.337723,50.284061 
	C150.158112,57.840714 153.978516,65.397369 158.331635,74.007759 
	C150.491608,74.958000 144.010925,75.743492 137.143875,76.516388 
z"/>
</svg>